# xmcd
#
# Track frame offsets: 
#        150
#        14900
#        33436
#        51498
#        66124
#        83039
#        107768
#        120210
#        136023
#        155072
#        167732
#
# Disc length: 4469 seconds
#
# Revision: 0
# Processed by: cddbd v1.5.2PL0 Copyright (c) Steve Scherf et al.
# Submitted via: ExactAudioCopy v1.0b4
#
DISCID=8f11730b
DTITLE=Eric Clapton - Money And Cigarettes (LP)
DYEAR=1900
DGENRE=Blues
TTITLE0=Everybody Oughta Make A Change
TTITLE1=The Shape You' re In
TTITLE2=Ain' t Going Down
TTITLE3=I' ve Got A Rock n' Roll Heart
TTITLE4=Man Overboard
TTITLE5=Pretty Girl
TTITLE6=Man In Love
TTITLE7=Crosscut Saw
TTITLE8=Slow Down Linda
TTITLE9=Crazy Country Hop
TTITLE10=Money And Cigarettes (LP)
EXTD=
EXTT0=
EXTT1=
EXTT2=
EXTT3=
EXTT4=
EXTT5=
EXTT6=
EXTT7=
EXTT8=
EXTT9=
EXTT10=
PLAYORDER=
